# xmcd CD database file
#
# Track frame offsets:
#	150
#	51225
#	99900
#	148050
#	216450
#	263175
#
# Disc length: 3954 seconds
#
# Revision: 4
# Processed by: cddbd v1.5.2PL0 Copyright (c) Steve Scherf et al.
# Submitted via: CDex 1.70beta3
#
DISCID=5a0f7006
DTITLE=Richard Wagner - Overtures and Preludes
DYEAR=1989
DGENRE=Classical
TTITLE0=Der fliegende Hollander (Overture)
TTITLE1=Lohengrin (Prelude)
TTITLE2=Die Meistersinger von Nurnberg (Prelude)
TTITLE3=Tannhauser (Overture)
TTITLE4=Tristan und Isolde (Prelude)
TTITLE5=Tristan und Isolde (Liebestod)
EXTD=Seiji Ozawa\nBerlin Philharmonic YEAR: 1989
EXTT0=
EXTT1=
EXTT2=
EXTT3=
EXTT4=
EXTT5=
PLAYORDER=
